# xmcd
# 
# Track frame offsets:
#     150
#     28616
#     49893
#     69057
#     88972
#     111762
#     129140
#     150972
#     172022
#     191212
#     211048
# 
# Disc length: 3118
# 
# Revision: 0
# Processed by: cddbd v1.5.2PL0 Copyright (c) Steve Scherf et al.
# Submitted via: fre:ac v1.0.17
# 
DISCID=8a0c2c0b
DTITLE=Paul Myrow - Drove to Wichita
DYEAR=0
DGENRE=Blues
TTITLE0=Can't Go Back
TTITLE1=Don't Make Me
TTITLE2=Lo and Behold
TTITLE3=Drove to Wichita
TTITLE4=It's Bad
TTITLE5=Riot in Cell Block #9
TTITLE6=Got No Destination
TTITLE7=Puts Them All to Shame
TTITLE8=Old Man Cries
TTITLE9=Wallflower
TTITLE10=Poor Old Me
EXTD=
EXTT0=
EXTT1=
EXTT2=
EXTT3=
EXTT4=
EXTT5=
EXTT6=
EXTT7=
EXTT8=
EXTT9=
EXTT10=
PLAYORDER=
